<?xml version="1.0" encoding="utf-8" ?>
<svg baseProfile="tiny" height="360.0" version="1.2" width="440.0" xmlns="http://www.w3.org/2000/svg" xmlns:ev="http://www.w3.org/2001/xml-events" xmlns:xlink="http://www.w3.org/1999/xlink"><defs /><rect fill="rgb(240,240,255)" height="360.0" width="440.0" x="0.0" y="0.0" /><line opacity="0.1" stroke="black" stroke-width="4.4" x1="330.0" x2="440.0" y1="116.4915" y2="307.0171" /><line opacity="0.1" stroke="black" stroke-width="4.4" x1="110.0" x2="220.0" y1="116.4915" y2="307.0171" /><line opacity="0.1" stroke="black" stroke-width="4.4" x1="220.0" x2="440.0" y1="307.0171" y2="307.0171" /><line opacity="0.1" stroke="black" stroke-width="4.4" x1="110.0" x2="330.0" y1="116.4915" y2="116.4915" /><circle cx="220.0" cy="180.0" fill="rgb(240,216,198)" r="50.0923" stroke="rgb(144,129,118)" stroke-width="5.0092" /><line opacity="0.1" stroke="black" stroke-width="4.4" x1="330.0" x2="440.0" y1="243.5085" y2="307.0171" /><line opacity="0.1" stroke="black" stroke-width="4.4" x1="220.0" x2="330.0" y1="52.9829" y2="116.4915" /><line opacity="0.1" stroke="black" stroke-width="4.4" x1="110.0" x2="220.0" y1="243.5085" y2="307.0171" /><line opacity="0.1" stroke="black" stroke-width="4.4" x1="0.0" x2="110.0" y1="52.9829" y2="116.4915" /><line opacity="0.1" stroke="black" stroke-width="4.4" x1="220.0" x2="330.0" y1="52.9829" y2="243.5085" /><line opacity="0.1" stroke="black" stroke-width="4.4" x1="0.0" x2="110.0" y1="52.9829" y2="243.5085" /><line opacity="0.1" stroke="black" stroke-width="4.4" x1="110.0" x2="330.0" y1="243.5085" y2="243.5085" /><line opacity="0.1" stroke="black" stroke-width="4.4" x1="0.0" x2="220.0" y1="52.9829" y2="52.9829" /><rect fill="rgb(240,200,160)" height="30" rx="2" ry="2" stroke="rgb(47,39,31)" stroke-width="2" width="30" x="400.0" y="10.0" /><text fill="rgb(47,39,31)" font-size="10" text-anchor="middle" x="407.0" y="20.0">14</text><text fill="rgb(47,39,31)" font-size="18" text-anchor="middle" x="415.0" y="35.0">Si</text></svg>