<?xml version="1.0" encoding="utf-8" ?>
<svg baseProfile="tiny" height="360.0" version="1.2" width="440.0" xmlns="http://www.w3.org/2000/svg" xmlns:ev="http://www.w3.org/2001/xml-events" xmlns:xlink="http://www.w3.org/1999/xlink"><defs /><rect fill="rgb(240,240,255)" height="360.0" width="440.0" x="0.0" y="0.0" /><line opacity="0.1" stroke="black" stroke-width="4.4" x1="110.0" x2="330.0" y1="116.4915" y2="116.4915" /><line opacity="0.1" stroke="black" stroke-width="4.4" x1="220.0" x2="440.0" y1="307.0171" y2="307.0171" /><line opacity="0.1" stroke="black" stroke-width="4.4" x1="110.0" x2="220.0" y1="116.4915" y2="307.0171" /><line opacity="0.1" stroke="black" stroke-width="4.4" x1="330.0" x2="440.0" y1="116.4915" y2="307.0171" /><line stroke="rgb(144,135,133)" stroke-width="6.679" x1="310.0308" x2="349.9692" y1="264.678" y2="264.678" /><line stroke="rgb(144,135,133)" stroke-width="6.679" x1="163.3641" x2="203.3026" y1="137.661" y2="137.661" /><line stroke="rgb(144,135,133)" stroke-width="6.679" x1="236.6974" x2="276.6359" y1="264.678" y2="264.678" /><circle cx="146.6667" cy="137.661" fill="rgb(240,226,223)" r="16.6974" stroke="rgb(144,135,133)" stroke-width="1.6697" /><circle cx="220.0" cy="137.661" fill="rgb(240,226,223)" r="16.6974" stroke="rgb(144,135,133)" stroke-width="1.6697" /><circle cx="293.3333" cy="137.661" fill="rgb(240,226,223)" r="16.6974" stroke="rgb(144,135,133)" stroke-width="1.6697" /><circle cx="183.3333" cy="201.1695" fill="rgb(240,226,223)" r="16.6974" stroke="rgb(144,135,133)" stroke-width="1.6697" /><circle cx="256.6667" cy="201.1695" fill="rgb(240,226,223)" r="16.6974" stroke="rgb(144,135,133)" stroke-width="1.6697" /><circle cx="330.0" cy="201.1695" fill="rgb(240,226,223)" r="16.6974" stroke="rgb(144,135,133)" stroke-width="1.6697" /><circle cx="220.0" cy="264.678" fill="rgb(240,226,223)" r="16.6974" stroke="rgb(144,135,133)" stroke-width="1.6697" /><circle cx="366.6667" cy="264.678" fill="rgb(240,226,223)" r="16.6974" stroke="rgb(144,135,133)" stroke-width="1.6697" /><circle cx="293.3333" cy="264.678" fill="rgb(240,226,223)" r="16.6974" stroke="rgb(144,135,133)" stroke-width="1.6697" /><line stroke="rgb(144,135,133)" stroke-width="6.679" x1="155.0154" x2="174.9846" y1="152.1214" y2="186.7091" /><line stroke="rgb(144,135,133)" stroke-width="6.679" x1="200.0308" x2="239.9692" y1="201.1695" y2="201.1695" /><line stroke="rgb(144,135,133)" stroke-width="6.679" x1="338.3487" x2="358.3179" y1="215.6299" y2="250.2176" /><line stroke="rgb(144,135,133)" stroke-width="6.679" x1="321.6513" x2="301.6821" y1="215.6299" y2="250.2176" /><line stroke="rgb(144,135,133)" stroke-width="6.679" x1="265.0154" x2="284.9846" y1="215.6299" y2="250.2176" /><line stroke="rgb(144,135,133)" stroke-width="6.679" x1="248.3179" x2="228.3487" y1="215.6299" y2="250.2176" /><line stroke="rgb(144,135,133)" stroke-width="6.679" x1="191.6821" x2="211.6513" y1="215.6299" y2="250.2176" /><line stroke="rgb(144,135,133)" stroke-width="6.679" x1="273.3641" x2="313.3026" y1="201.1695" y2="201.1695" /><line stroke="rgb(144,135,133)" stroke-width="6.679" x1="301.6821" x2="321.6513" y1="152.1214" y2="186.7091" /><line stroke="rgb(144,135,133)" stroke-width="6.679" x1="284.9846" x2="265.0154" y1="152.1214" y2="186.7091" /><line stroke="rgb(144,135,133)" stroke-width="6.679" x1="228.3487" x2="248.3179" y1="152.1214" y2="186.7091" /><line stroke="rgb(144,135,133)" stroke-width="6.679" x1="211.6513" x2="191.6821" y1="152.1214" y2="186.7091" /><line stroke="rgb(144,135,133)" stroke-width="6.679" x1="236.6974" x2="276.6359" y1="137.661" y2="137.661" /><line stroke="rgb(144,132,126)" stroke-width="6.679" x1="155.0154" x2="174.9846" y1="184.8201" y2="196.3494" /><line stroke="rgb(144,132,126)" stroke-width="6.679" x1="118.3487" x2="138.3179" y1="121.3116" y2="132.8408" /><line stroke="rgb(144,132,126)" stroke-width="6.679" x1="174.9846" x2="155.0154" y1="121.3116" y2="132.8408" /><line stroke="rgb(144,132,126)" stroke-width="6.679" x1="191.6821" x2="211.6513" y1="121.3116" y2="132.8408" /><line stroke="rgb(144,132,126)" stroke-width="6.679" x1="248.3179" x2="228.3487" y1="121.3116" y2="132.8408" /><line stroke="rgb(144,132,126)" stroke-width="6.679" x1="146.6667" x2="146.6667" y1="170.3597" y2="147.3012" /><line stroke="rgb(144,132,126)" stroke-width="6.679" x1="265.0154" x2="284.9846" y1="121.3116" y2="132.8408" /><line stroke="rgb(144,132,126)" stroke-width="6.679" x1="191.6821" x2="211.6513" y1="248.3287" y2="259.8579" /><line stroke="rgb(144,132,126)" stroke-width="6.679" x1="248.3179" x2="228.3487" y1="248.3287" y2="259.8579" /><line stroke="rgb(144,132,126)" stroke-width="6.679" x1="301.6821" x2="321.6513" y1="184.8201" y2="196.3494" /><line stroke="rgb(144,132,126)" stroke-width="6.679" x1="183.3333" x2="183.3333" y1="233.8683" y2="210.8098" /><line stroke="rgb(144,132,126)" stroke-width="6.679" x1="228.3487" x2="248.3179" y1="184.8201" y2="196.3494" /><line stroke="rgb(144,132,126)" stroke-width="6.679" x1="211.6513" x2="191.6821" y1="184.8201" y2="196.3494" /><line stroke="rgb(144,132,126)" stroke-width="6.679" x1="293.3333" x2="293.3333" y1="170.3597" y2="147.3012" /><line stroke="rgb(144,132,126)" stroke-width="6.679" x1="256.6667" x2="256.6667" y1="233.8683" y2="210.8098" /><line stroke="rgb(144,132,126)" stroke-width="6.679" x1="220.0" x2="220.0" y1="170.3597" y2="147.3012" /><line stroke="rgb(144,132,126)" stroke-width="6.679" x1="265.0154" x2="284.9846" y1="248.3287" y2="259.8579" /><line stroke="rgb(144,132,126)" stroke-width="6.679" x1="330.0" x2="330.0" y1="233.8683" y2="210.8098" /><line stroke="rgb(144,132,126)" stroke-width="6.679" x1="321.6513" x2="301.6821" y1="248.3287" y2="259.8579" /><line stroke="rgb(144,132,126)" stroke-width="6.679" x1="338.3487" x2="358.3179" y1="248.3287" y2="259.8579" /><line stroke="rgb(144,132,126)" stroke-width="6.679" x1="284.9846" x2="265.0154" y1="184.8201" y2="196.3494" /><line stroke="rgb(144,129,118)" stroke-width="6.679" x1="200.0308" x2="239.9692" y1="243.5085" y2="243.5085" /><circle cx="146.6667" cy="180.0" fill="rgb(240,216,198)" r="16.6974" stroke="rgb(144,129,118)" stroke-width="1.6697" /><circle cx="220.0" cy="180.0" fill="rgb(240,216,198)" r="16.6974" stroke="rgb(144,129,118)" stroke-width="1.6697" /><line stroke="rgb(144,129,118)" stroke-width="6.679" x1="236.6974" x2="276.6359" y1="180.0" y2="180.0" /><circle cx="293.3333" cy="180.0" fill="rgb(240,216,198)" r="16.6974" stroke="rgb(144,129,118)" stroke-width="1.6697" /><circle cx="183.3333" cy="243.5085" fill="rgb(240,216,198)" r="16.6974" stroke="rgb(144,129,118)" stroke-width="1.6697" /><circle cx="256.6667" cy="243.5085" fill="rgb(240,216,198)" r="16.6974" stroke="rgb(144,129,118)" stroke-width="1.6697" /><circle cx="330.0" cy="243.5085" fill="rgb(240,216,198)" r="16.6974" stroke="rgb(144,129,118)" stroke-width="1.6697" /><circle cx="183.3333" cy="116.4915" fill="rgb(240,216,198)" r="16.6974" stroke="rgb(144,129,118)" stroke-width="1.6697" /><line stroke="rgb(144,129,118)" stroke-width="6.679" x1="273.3641" x2="313.3026" y1="243.5085" y2="243.5085" /><circle cx="256.6667" cy="116.4915" fill="rgb(240,216,198)" r="16.6974" stroke="rgb(144,129,118)" stroke-width="1.6697" /><line opacity="0.1" stroke="black" stroke-width="4.4" x1="220.0" x2="330.0" y1="52.9829" y2="116.4915" /><circle cx="110.0" cy="116.4915" fill="rgb(240,216,198)" r="16.6974" stroke="rgb(144,129,118)" stroke-width="1.6697" /><line stroke="rgb(144,129,118)" stroke-width="6.679" x1="200.0308" x2="239.9692" y1="116.4915" y2="116.4915" /><line stroke="rgb(144,129,118)" stroke-width="6.679" x1="228.3487" x2="248.3179" y1="194.4604" y2="229.0481" /><line stroke="rgb(144,129,118)" stroke-width="6.679" x1="155.0154" x2="174.9846" y1="194.4604" y2="229.0481" /><line stroke="rgb(144,129,118)" stroke-width="6.679" x1="163.3641" x2="203.3026" y1="180.0" y2="180.0" /><line stroke="rgb(144,129,118)" stroke-width="6.679" x1="265.0154" x2="284.9846" y1="130.9519" y2="165.5396" /><line stroke="rgb(144,129,118)" stroke-width="6.679" x1="248.3179" x2="228.3487" y1="130.9519" y2="165.5396" /><line stroke="rgb(144,129,118)" stroke-width="6.679" x1="191.6821" x2="211.6513" y1="130.9519" y2="165.5396" /><line opacity="0.1" stroke="black" stroke-width="4.4" x1="330.0" x2="440.0" y1="243.5085" y2="307.0171" /><line stroke="rgb(144,129,118)" stroke-width="6.679" x1="174.9846" x2="155.0154" y1="130.9519" y2="165.5396" /><line stroke="rgb(144,129,118)" stroke-width="6.679" x1="284.9846" x2="265.0154" y1="194.4604" y2="229.0481" /><line stroke="rgb(144,129,118)" stroke-width="6.679" x1="118.3487" x2="138.3179" y1="130.9519" y2="165.5396" /><line stroke="rgb(144,129,118)" stroke-width="6.679" x1="126.6974" x2="166.6359" y1="116.4915" y2="116.4915" /><line stroke="rgb(144,129,118)" stroke-width="6.679" x1="301.6821" x2="321.6513" y1="194.4604" y2="229.0481" /><line opacity="0.1" stroke="black" stroke-width="4.4" x1="0.0" x2="110.0" y1="52.9829" y2="116.4915" /><line opacity="0.1" stroke="black" stroke-width="4.4" x1="110.0" x2="220.0" y1="243.5085" y2="307.0171" /><line stroke="rgb(144,129,118)" stroke-width="6.679" x1="211.6513" x2="191.6821" y1="194.4604" y2="229.0481" /><line stroke="rgb(144,126,111)" stroke-width="6.679" x1="155.0154" x2="174.9846" y1="100.1421" y2="111.6713" /><line stroke="rgb(144,126,111)" stroke-width="6.679" x1="81.6821" x2="101.6513" y1="100.1421" y2="111.6713" /><line stroke="rgb(144,126,111)" stroke-width="6.679" x1="138.3179" x2="118.3487" y1="100.1421" y2="111.6713" /><line stroke="rgb(144,126,111)" stroke-width="6.679" x1="248.3179" x2="228.3487" y1="163.6506" y2="175.1799" /><line stroke="rgb(144,126,111)" stroke-width="6.679" x1="155.0154" x2="174.9846" y1="227.1592" y2="238.6884" /><line stroke="rgb(144,126,111)" stroke-width="6.679" x1="146.6667" x2="146.6667" y1="212.6988" y2="189.6403" /><line stroke="rgb(144,126,111)" stroke-width="6.679" x1="174.9846" x2="155.0154" y1="163.6506" y2="175.1799" /><line stroke="rgb(144,126,111)" stroke-width="6.679" x1="183.3333" x2="183.3333" y1="149.1902" y2="126.1317" /><line stroke="rgb(144,126,111)" stroke-width="6.679" x1="256.6667" x2="256.6667" y1="149.1902" y2="126.1317" /><line stroke="rgb(144,126,111)" stroke-width="6.679" x1="265.0154" x2="284.9846" y1="163.6506" y2="175.1799" /><line stroke="rgb(144,126,111)" stroke-width="6.679" x1="118.3487" x2="138.3179" y1="163.6506" y2="175.1799" /><line stroke="rgb(144,126,111)" stroke-width="6.679" x1="110.0" x2="110.0" y1="149.1902" y2="126.1317" /><line stroke="rgb(144,126,111)" stroke-width="6.679" x1="220.0" x2="220.0" y1="212.6988" y2="189.6403" /><line stroke="rgb(144,126,111)" stroke-width="6.679" x1="228.3487" x2="248.3179" y1="100.1421" y2="111.6713" /><line stroke="rgb(144,126,111)" stroke-width="6.679" x1="211.6513" x2="191.6821" y1="100.1421" y2="111.6713" /><line stroke="rgb(144,126,111)" stroke-width="6.679" x1="211.6513" x2="191.6821" y1="227.1592" y2="238.6884" /><line stroke="rgb(144,126,111)" stroke-width="6.679" x1="228.3487" x2="248.3179" y1="227.1592" y2="238.6884" /><line stroke="rgb(144,126,111)" stroke-width="6.679" x1="293.3333" x2="293.3333" y1="212.6988" y2="189.6403" /><line stroke="rgb(144,126,111)" stroke-width="6.679" x1="284.9846" x2="265.0154" y1="227.1592" y2="238.6884" /><line stroke="rgb(144,126,111)" stroke-width="6.679" x1="301.6821" x2="321.6513" y1="227.1592" y2="238.6884" /><line stroke="rgb(144,126,111)" stroke-width="6.679" x1="191.6821" x2="211.6513" y1="163.6506" y2="175.1799" /><circle cx="110.0" cy="158.8305" fill="rgb(240,205,172)" r="16.6974" stroke="rgb(144,123,103)" stroke-width="1.6697" /><circle cx="183.3333" cy="158.8305" fill="rgb(240,205,172)" r="16.6974" stroke="rgb(144,123,103)" stroke-width="1.6697" /><line stroke="rgb(144,123,103)" stroke-width="6.679" x1="211.6513" x2="191.6821" y1="109.7824" y2="144.3701" /><circle cx="220.0" cy="95.322" fill="rgb(240,205,172)" r="16.6974" stroke="rgb(144,123,103)" stroke-width="1.6697" /><circle cx="146.6667" cy="95.322" fill="rgb(240,205,172)" r="16.6974" stroke="rgb(144,123,103)" stroke-width="1.6697" /><circle cx="73.3333" cy="95.322" fill="rgb(240,205,172)" r="16.6974" stroke="rgb(144,123,103)" stroke-width="1.6697" /><circle cx="146.6667" cy="222.339" fill="rgb(240,205,172)" r="16.6974" stroke="rgb(144,123,103)" stroke-width="1.6697" /><line stroke="rgb(144,123,103)" stroke-width="6.679" x1="236.6974" x2="276.6359" y1="222.339" y2="222.339" /><circle cx="256.6667" cy="158.8305" fill="rgb(240,205,172)" r="16.6974" stroke="rgb(144,123,103)" stroke-width="1.6697" /><line stroke="rgb(144,123,103)" stroke-width="6.679" x1="163.3641" x2="203.3026" y1="222.339" y2="222.339" /><circle cx="220.0" cy="222.339" fill="rgb(240,205,172)" r="16.6974" stroke="rgb(144,123,103)" stroke-width="1.6697" /><line stroke="rgb(144,123,103)" stroke-width="6.679" x1="118.3487" x2="138.3179" y1="173.2909" y2="207.8786" /><line stroke="rgb(144,123,103)" stroke-width="6.679" x1="138.3179" x2="118.3487" y1="109.7824" y2="144.3701" /><line stroke="rgb(144,123,103)" stroke-width="6.679" x1="163.3641" x2="203.3026" y1="95.322" y2="95.322" /><line stroke="rgb(144,123,103)" stroke-width="6.679" x1="228.3487" x2="248.3179" y1="109.7824" y2="144.3701" /><line stroke="rgb(144,123,103)" stroke-width="6.679" x1="81.6821" x2="101.6513" y1="109.7824" y2="144.3701" /><line stroke="rgb(144,123,103)" stroke-width="6.679" x1="90.0308" x2="129.9692" y1="95.322" y2="95.322" /><circle cx="293.3333" cy="222.339" fill="rgb(240,205,172)" r="16.6974" stroke="rgb(144,123,103)" stroke-width="1.6697" /><line stroke="rgb(144,123,103)" stroke-width="6.679" x1="126.6974" x2="166.6359" y1="158.8305" y2="158.8305" /><line stroke="rgb(144,123,103)" stroke-width="6.679" x1="200.0308" x2="239.9692" y1="158.8305" y2="158.8305" /><line stroke="rgb(144,123,103)" stroke-width="6.679" x1="174.9846" x2="155.0154" y1="173.2909" y2="207.8786" /><line stroke="rgb(144,123,103)" stroke-width="6.679" x1="191.6821" x2="211.6513" y1="173.2909" y2="207.8786" /><line stroke="rgb(144,123,103)" stroke-width="6.679" x1="248.3179" x2="228.3487" y1="173.2909" y2="207.8786" /><line stroke="rgb(144,123,103)" stroke-width="6.679" x1="265.0154" x2="284.9846" y1="173.2909" y2="207.8786" /><line stroke="rgb(144,123,103)" stroke-width="6.679" x1="155.0154" x2="174.9846" y1="109.7824" y2="144.3701" /><line opacity="0.1" stroke="black" stroke-width="4.4" x1="220.0" x2="330.0" y1="52.9829" y2="243.5085" /><line opacity="0.1" stroke="black" stroke-width="4.4" x1="0.0" x2="110.0" y1="52.9829" y2="243.5085" /><line opacity="0.1" stroke="black" stroke-width="4.4" x1="110.0" x2="330.0" y1="243.5085" y2="243.5085" /><line opacity="0.1" stroke="black" stroke-width="4.4" x1="0.0" x2="220.0" y1="52.9829" y2="52.9829" /><rect fill="rgb(240,200,160)" height="30" rx="2" ry="2" stroke="rgb(47,39,31)" stroke-width="2" width="30" x="400.0" y="10.0" /><text fill="rgb(47,39,31)" font-size="10" text-anchor="middle" x="407.0" y="20.0">14</text><text fill="rgb(47,39,31)" font-size="18" text-anchor="middle" x="415.0" y="35.0">Si</text></svg>