<?xml version="1.0" encoding="utf-8" ?>
<svg baseProfile="tiny" height="360.0" version="1.2" width="440.0" xmlns="http://www.w3.org/2000/svg" xmlns:ev="http://www.w3.org/2001/xml-events" xmlns:xlink="http://www.w3.org/1999/xlink"><defs /><rect fill="rgb(240,240,255)" height="360.0" width="440.0" x="0.0" y="0.0" /><line opacity="0.1" stroke="black" stroke-width="4.4" x1="220.0" x2="179.9039" y1="360.0" y2="90.3594" /><line opacity="0.1" stroke="black" stroke-width="4.4" x1="329.5445" x2="179.9039" y1="10.4555" y2="90.3594" /><line opacity="0.1" stroke="black" stroke-width="4.4" x1="70.3594" x2="179.9039" y1="79.9039" y2="90.3594" /><line opacity="0.1" stroke="black" stroke-width="4.4" x1="369.6406" x2="220.0" y1="280.0961" y2="360.0" /><line opacity="0.1" stroke="black" stroke-width="4.4" x1="369.6406" x2="329.5445" y1="280.0961" y2="10.4555" /><line opacity="0.1" stroke="black" stroke-width="4.4" x1="110.4555" x2="220.0" y1="349.5445" y2="360.0" /><circle cx="220.0" cy="180.0" fill="rgb(240,216,198)" r="37.4137" stroke="rgb(144,129,118)" stroke-width="3.7414" /><line opacity="0.1" stroke="black" stroke-width="4.4" x1="220.0" x2="329.5445" y1="0.0" y2="10.4555" /><line stroke="rgb(144,128,115)" stroke-width="14.9655" x1="162.2767" x2="202.903" y1="71.954" y2="147.998" /><line opacity="0.1" stroke="black" stroke-width="4.4" x1="110.4555" x2="70.3594" y1="349.5445" y2="79.9039" /><circle cx="145.1797" cy="39.952" fill="rgb(240,212,189)" r="37.4137" stroke="rgb(144,127,113)" stroke-width="3.7414" /><line opacity="0.1" stroke="black" stroke-width="4.4" x1="220.0" x2="70.3594" y1="0.0" y2="79.9039" /><line stroke="rgb(144,126,112)" stroke-width="14.9655" x1="293.2675" x2="241.6008" y1="253.2675" y2="201.6008" /><line stroke="rgb(144,125,109)" stroke-width="14.9655" x1="234.8245" x2="225.2235" y1="146.5918" y2="168.2285" /><line stroke="rgb(144,124,107)" stroke-width="14.9655" x1="218.4472" x2="166.7805" y1="113.2195" y2="61.5528" /><circle cx="314.8683" cy="274.8683" fill="rgb(240,207,177)" r="37.4137" stroke="rgb(144,124,106)" stroke-width="3.7414" /><line opacity="0.1" stroke="black" stroke-width="4.4" x1="260.0961" x2="369.6406" y1="269.6406" y2="280.0961" /><line stroke="rgb(144,123,103)" stroke-width="14.9655" x1="257.145" x2="297.7713" y1="166.8223" y2="242.8663" /><line opacity="0.1" stroke="black" stroke-width="4.4" x1="260.0961" x2="110.4555" y1="269.6406" y2="349.5445" /><circle cx="240.048" cy="134.8203" fill="rgb(240,203,169)" r="37.4137" stroke="rgb(144,121,101)" stroke-width="3.7414" /><line opacity="0.1" stroke="black" stroke-width="4.4" x1="260.0961" x2="220.0" y1="269.6406" y2="0.0" /><rect fill="rgb(240,200,160)" height="30" rx="2" ry="2" stroke="rgb(47,39,31)" stroke-width="2" width="30" x="400.0" y="10.0" /><text fill="rgb(47,39,31)" font-size="10" text-anchor="middle" x="407.0" y="20.0">14</text><text fill="rgb(47,39,31)" font-size="18" text-anchor="middle" x="415.0" y="35.0">Si</text></svg>