<?xml version="1.0" encoding="utf-8" ?>
<svg baseProfile="tiny" height="360.0" version="1.2" width="440.0" xmlns="http://www.w3.org/2000/svg" xmlns:ev="http://www.w3.org/2001/xml-events" xmlns:xlink="http://www.w3.org/1999/xlink"><defs /><rect fill="rgb(240,240,255)" height="360.0" width="440.0" x="0.0" y="0.0" /><circle cx="259.5092" cy="354.5493" fill="rgb(245,212,167)" r="5.4507" stroke="rgb(147,127,100)" stroke-width="0.5451" /><circle cx="227.9018" cy="228.2473" fill="rgb(245,212,167)" r="5.4507" stroke="rgb(147,127,100)" stroke-width="0.5451" /><circle cx="227.9018" cy="5.4507" fill="rgb(245,212,167)" r="5.4507" stroke="rgb(147,127,100)" stroke-width="0.5451" /><circle cx="196.2945" cy="28.8166" fill="rgb(211,184,229)" r="7.5675" stroke="rgb(126,110,137)" stroke-width="0.7568" /><circle cx="259.5092" cy="53.6981" fill="rgb(245,212,167)" r="5.4507" stroke="rgb(147,127,100)" stroke-width="0.5451" /><circle cx="227.9018" cy="78.5796" fill="rgb(211,184,229)" r="7.5675" stroke="rgb(126,110,137)" stroke-width="0.7568" /><circle cx="196.2945" cy="101.9454" fill="rgb(245,212,167)" r="5.4507" stroke="rgb(147,127,100)" stroke-width="0.5451" /><circle cx="259.5092" cy="131.7527" fill="rgb(245,212,167)" r="5.4507" stroke="rgb(147,127,100)" stroke-width="0.5451" /><circle cx="227.9018" cy="155.1185" fill="rgb(211,184,229)" r="7.5675" stroke="rgb(126,110,137)" stroke-width="0.7568" /><circle cx="259.5092" cy="204.8815" fill="rgb(211,184,229)" r="7.5675" stroke="rgb(126,110,137)" stroke-width="0.7568" /><circle cx="196.2945" cy="180.0" fill="rgb(245,212,167)" r="5.4507" stroke="rgb(147,127,100)" stroke-width="0.5451" /><circle cx="227.9018" cy="306.3019" fill="rgb(245,212,167)" r="5.4507" stroke="rgb(147,127,100)" stroke-width="0.5451" /><circle cx="196.2945" cy="331.1834" fill="rgb(211,184,229)" r="7.5675" stroke="rgb(126,110,137)" stroke-width="0.7568" /><circle cx="196.2945" cy="258.0546" fill="rgb(245,212,167)" r="5.4507" stroke="rgb(147,127,100)" stroke-width="0.5451" /><circle cx="259.5092" cy="281.4204" fill="rgb(211,184,229)" r="7.5675" stroke="rgb(126,110,137)" stroke-width="0.7568" /><circle cx="180.4908" cy="228.2473" fill="rgb(252,172,36)" r="5.4507" stroke="rgb(151,103,21)" stroke-width="0.5451" /><circle cx="243.7055" cy="331.1834" fill="rgb(169,101,191)" r="7.5675" stroke="rgb(101,60,114)" stroke-width="0.7568" /><circle cx="243.7055" cy="28.8166" fill="rgb(169,101,191)" r="7.5675" stroke="rgb(101,60,114)" stroke-width="0.7568" /><circle cx="212.0982" cy="53.6981" fill="rgb(252,172,36)" r="5.4507" stroke="rgb(151,103,21)" stroke-width="0.5451" /><circle cx="180.4908" cy="306.3019" fill="rgb(252,172,36)" r="5.4507" stroke="rgb(151,103,21)" stroke-width="0.5451" /><circle cx="180.4908" cy="78.5796" fill="rgb(169,101,191)" r="7.5675" stroke="rgb(101,60,114)" stroke-width="0.7568" /><circle cx="243.7055" cy="101.9454" fill="rgb(252,172,36)" r="5.4507" stroke="rgb(151,103,21)" stroke-width="0.5451" /><circle cx="212.0982" cy="281.4204" fill="rgb(169,101,191)" r="7.5675" stroke="rgb(101,60,114)" stroke-width="0.7568" /><circle cx="212.0982" cy="204.8815" fill="rgb(169,101,191)" r="7.5675" stroke="rgb(101,60,114)" stroke-width="0.7568" /><circle cx="212.0982" cy="131.7527" fill="rgb(252,172,36)" r="5.4507" stroke="rgb(151,103,21)" stroke-width="0.5451" /><circle cx="180.4908" cy="155.1185" fill="rgb(169,101,191)" r="7.5675" stroke="rgb(101,60,114)" stroke-width="0.7568" /><circle cx="212.0982" cy="354.5493" fill="rgb(252,172,36)" r="5.4507" stroke="rgb(151,103,21)" stroke-width="0.5451" /><circle cx="243.7055" cy="180.0" fill="rgb(252,172,36)" r="5.4507" stroke="rgb(151,103,21)" stroke-width="0.5451" /><circle cx="243.7055" cy="258.0546" fill="rgb(252,172,36)" r="5.4507" stroke="rgb(151,103,21)" stroke-width="0.5451" /><circle cx="180.4908" cy="5.4507" fill="rgb(252,172,36)" r="5.4507" stroke="rgb(151,103,21)" stroke-width="0.5451" /><rect fill="rgb(255,161,0)" height="30" rx="2" ry="2" stroke="rgb(50,32,0)" stroke-width="2" width="30" x="360.0" y="10.0" /><text fill="rgb(50,32,0)" font-size="10" text-anchor="middle" x="367.0" y="20.0">34</text><text fill="rgb(50,32,0)" font-size="18" text-anchor="middle" x="375.0" y="35.0">Se</text><rect fill="rgb(158,79,181)" height="30" rx="2" ry="2" stroke="rgb(31,15,36)" stroke-width="2" width="30" x="400.0" y="10.0" /><text fill="rgb(31,15,36)" font-size="10" text-anchor="middle" x="407.0" y="20.0">83</text><text fill="rgb(31,15,36)" font-size="18" text-anchor="middle" x="415.0" y="35.0">Bi</text></svg>